<svg xmlns="http://www.w3.org/2000/svg" aria-hidden="true">
	<style>use:not(:target) { display: none; }</style>
	<defs>
		<symbol id="sym-add" viewBox="0 -960 960 960"><path d="M440-440H200v-80h240v-240h80v240h240v80H520v240h-80z"/></symbol>
		<symbol id="sym-close" viewBox="0 -960 960 960"><path d="m256-200-56-56 224-224-224-224 56-56 224 224 224-224 56 56-224 224 224 224-56 56-224-224z"/></symbol>
		<symbol id="sym-delete" viewBox="0 -960 960 960"><path d="M280-120q-33 0-56.5-23.5T200-200v-520h-40v-80h200v-40h240v40h200v80h-40v520q0 33-23.5 56.5T680-120zm400-600H280v520h400zM360-280h80v-360h-80zm160 0h80v-360h-80zM280-720v520z"/></symbol>
		<symbol id="sym-search" viewBox="0 -960 960 960"><path d="M784-120 532-372q-30 24-69 38t-83 14q-109 0-184.5-75.5T120-580t75.5-184.5T380-840t184.5 75.5T640-580q0 44-14 83t-38 69l252 252zM380-400q75 0 127.5-52.5T560-580t-52.5-127.5T380-760t-127.5 52.5T200-580t52.5 127.5T380-400"/></symbol>
		<symbol id="sym-settings" viewBox="0 -960 960 960"><path d="m370-80-16-128q-13-5-24.5-12T307-235l-119 50L78-375l103-78q-1-7-1-13.5v-27q0-6.5 1-13.5L78-585l110-190 119 50q11-8 23-15t24-12l16-128h220l16 128q13 5 24.5 12t22.5 15l119-50 110 190-103 78q1 7 1 13.5v27q0 6.5-2 13.5l103 78-110 190-118-50q-11 8-23 15t-24 12L590-80zm70-80h79l14-106q31-8 57.5-23.5T639-327l99 41 39-68-86-65q5-14 7-29.5t2-31.5-2-31.5-7-29.5l86-65-39-68-99 42q-22-23-48.5-38.5T533-694l-13-106h-79l-14 106q-31 8-57.5 23.5T321-633l-99-41-39 68 86 64q-5 15-7 30t-2 32q0 16 2 31t7 30l-86 65 39 68 99-42q22 23 48.5 38.5T427-266zm42-180q58 0 99-41t41-99-41-99-99-41q-59 0-99.5 41T342-480t40.5 99 99.5 41m-2-140"/></symbol>
	</defs>
	<use id="add" href="#sym-add" />
	<use id="close" href="#sym-close" />
	<use id="delete" href="#sym-delete" />
	<use id="search" href="#sym-search" />
	<use id="settings" href="#sym-settings" />
</svg>